<svg width="642" height="207" viewBox="0 0 642 207" fill="none" xmlns="http://www.w3.org/2000/svg">
<path d="M35.52 33.24V45.048H65.376C63.072 56.568 54.336 64.344 42.144 64.344C28.032 64.344 17.088 53.208 17.088 38.616C17.088 24.12 27.744 12.888 41.376 12.888C50.208 12.888 59.136 16.536 64.224 27.288L75.936 23.16C70.848 8.376 56.64 0.599997 41.376 0.599997C20.352 0.599997 3.84 17.304 3.84 38.616C3.84 59.928 20.448 76.536 41.76 76.536C63.072 76.536 78.144 60.216 78.144 38.808C78.144 37.272 78.048 35.448 77.856 33.24H35.52ZM111.122 25.656C96.7215 25.656 84.8175 36.024 84.8175 51.096C84.8175 66.168 96.7215 76.44 111.122 76.44C125.33 76.44 137.234 66.168 137.234 51.096C137.234 36.024 125.33 25.656 111.122 25.656ZM111.122 65.4C103.634 65.4 97.1055 60.024 97.1055 51.096C97.1055 42.168 103.634 36.792 111.122 36.792C118.418 36.792 124.946 42.168 124.946 51.096C124.946 60.024 118.418 65.4 111.122 65.4ZM232.812 2.04H219.756V32.472H183.276V2.04H170.22V75H183.276V44.28H219.756V75H232.812V2.04ZM268.715 25.656C254.315 25.656 242.411 36.024 242.411 51.096C242.411 66.168 254.315 76.44 268.715 76.44C282.923 76.44 294.827 66.168 294.827 51.096C294.827 36.024 282.923 25.656 268.715 25.656ZM268.715 65.4C261.227 65.4 254.699 60.024 254.699 51.096C254.699 42.168 261.227 36.792 268.715 36.792C276.011 36.792 282.539 42.168 282.539 51.096C282.539 60.024 276.011 65.4 268.715 65.4ZM364.662 25.656C356.982 25.656 351.126 28.632 347.19 33.528C343.734 28.44 337.878 25.656 331.446 25.656C325.206 25.656 320.502 27.672 317.142 31.032V27.096H304.47V75H317.142V51.96C317.142 41.88 321.366 37.272 328.086 37.272C333.366 37.272 337.494 41.208 337.494 47.64V75H350.166V51.96C350.166 41.88 354.582 37.272 361.302 37.272C366.582 37.272 370.71 41.208 370.71 47.64V75H383.286V45.048C383.286 33.336 374.646 25.656 364.662 25.656ZM440.717 50.136C440.237 35.544 429.197 25.656 416.429 25.656C402.701 25.656 391.661 36.024 391.661 51.096C391.661 66.168 402.701 76.44 416.237 76.44C426.701 76.44 435.245 71.64 439.469 61.656L428.141 59.256C424.685 65.112 419.981 65.592 416.237 65.592C410.381 65.592 405.485 61.368 404.237 54.456H440.717V50.136ZM416.429 36.696C421.517 36.696 426.125 39.384 427.757 45.528H404.621C406.157 39.576 411.629 36.696 416.429 36.696ZM477.433 87.672L488.281 62.232V61.944H473.689L467.929 87.672H477.433ZM43.776 181.576L74.016 132.04H59.04L37.248 168.136L15.36 132.04H0.96L30.72 181.768V205H43.776V181.576ZM92.6528 155.656C78.2528 155.656 66.3488 166.024 66.3488 181.096C66.3488 196.168 78.2528 206.44 92.6528 206.44C106.861 206.44 118.765 196.168 118.765 181.096C118.765 166.024 106.861 155.656 92.6528 155.656ZM92.6528 195.4C85.1648 195.4 78.6368 190.024 78.6368 181.096C78.6368 172.168 85.1648 166.792 92.6528 166.792C99.9488 166.792 106.477 172.168 106.477 181.096C106.477 190.024 99.9488 195.4 92.6528 195.4ZM174.104 157.096H161.432V178.312C161.432 190.024 156.728 194.824 149.528 194.824C143.672 194.824 139.832 190.312 139.832 183.592V157.096H127.16V186.28C127.16 198.184 134.84 206.44 146.359 206.44C152.696 206.44 157.688 204.424 161.432 200.68V205H174.104V157.096ZM193.708 157.768L204.556 132.328V132.04H189.964L184.204 157.768H193.708ZM243.576 156.424C235.512 156.424 229.944 159.88 226.392 165.448V157.096H213.72V205H226.392V189.544C226.392 176.2 231.768 169 243.48 169H246.264L246.936 156.808C245.784 156.424 244.824 156.424 243.576 156.424ZM299.624 180.136C299.144 165.544 288.104 155.656 275.336 155.656C261.608 155.656 250.568 166.024 250.568 181.096C250.568 196.168 261.608 206.44 275.144 206.44C285.608 206.44 294.152 201.64 298.375 191.656L287.048 189.256C283.592 195.112 278.888 195.592 275.144 195.592C269.288 195.592 264.392 191.368 263.144 184.456H299.624V180.136ZM275.336 166.696C280.424 166.696 285.032 169.384 286.664 175.528H263.528C265.064 169.576 270.536 166.696 275.336 166.696ZM332.595 132.04V205H362.355C385.683 205 401.235 190.408 401.235 168.52C401.235 146.632 385.683 132.04 362.355 132.04H332.595ZM345.651 193.192V143.848H363.219C378.099 143.848 388.083 153.736 388.083 168.52C388.083 183.304 378.099 193.192 363.219 193.192H345.651ZM441.67 156.424C433.606 156.424 428.038 159.88 424.486 165.448V157.096H411.814V205H424.486V189.544C424.486 176.2 429.862 169 441.574 169H444.358L445.03 156.808C443.878 156.424 442.918 156.424 441.67 156.424ZM498.666 157.096H485.994V178.312C485.994 190.024 481.29 194.824 474.09 194.824C468.234 194.824 464.394 190.312 464.394 183.592V157.096H451.722V186.28C451.722 198.184 459.402 206.44 470.922 206.44C477.258 206.44 482.25 204.424 485.994 200.68V205H498.666V157.096ZM539.87 155.656C533.534 155.656 528.542 157.672 524.798 161.416V157.096H512.126V205H524.798V183.784C524.798 172.072 529.502 167.272 536.702 167.272C542.558 167.272 546.398 171.784 546.398 178.504V205H559.07V175.816C559.07 163.912 551.39 155.656 539.87 155.656ZM603.155 205H620.435L595.475 181L618.611 157.096H602.579L583.955 175.912V128.2H571.283V205H583.955V186.856L603.155 205ZM641.27 132.04H627.35V135.4L627.83 181H640.79L641.27 135.4V132.04ZM634.262 190.696C629.846 190.696 626.678 194.152 626.678 198.088C626.678 202.216 629.846 205.384 634.262 205.384C638.678 205.384 641.846 202.216 641.846 198.088C641.846 194.152 638.678 190.696 634.262 190.696Z" fill="black"/>
</svg>
