<svg width="919" height="790" viewBox="0 0 919 790" fill="none" xmlns="http://www.w3.org/2000/svg">
<path opacity="0.2" d="M471.606 427.692V406.736L441.343 389.262V368.306L411.081 350.814V329.875L380.836 312.4L250.073 383.725L284.038 403.238V424.194L314.3 441.652V462.625L344.562 480.082V501.055L477.125 692.631C608.397 670.469 708.608 603.627 750.894 517.239C755.785 507.254 760.138 497.195 763.953 487.062L471.606 427.692Z" fill="#92E3A9"/>
<path opacity="0.15" d="M285.21 19.1527C196.733 70.0992 125 206.636 125 324.186C125 394.034 150.337 441.465 189.532 457.768L205.716 448.427L364.839 356.571L381.43 346.993C420.337 285.772 445.487 209.438 445.487 139.811C445.419 22.2944 373.704 -31.7428 285.21 19.1527Z" fill="#92E3A9"/>
<path opacity="0.15" d="M285.21 53.1509C210.862 95.9459 150.592 210.677 150.592 309.462C150.592 408.248 210.862 453.658 285.21 410.897C359.557 368.136 419.844 253.353 419.844 154.568C419.844 55.7832 359.574 10.3729 285.21 53.1509Z" fill="#92E3A9"/>
<path opacity="0.15" d="M285.21 77.1128C221.051 114.168 169.035 213.547 169.035 299.086C169.035 384.625 221.051 423.973 285.21 386.935C349.368 349.897 401.385 250.5 401.385 164.944C401.385 79.3884 349.385 40.0407 285.21 77.1128Z" fill="#92E3A9"/>
<path d="M216.704 303.145C216.704 229.035 261.774 142.936 317.357 110.822C341.862 96.6931 364.295 95.3855 381.736 104.692L359.133 91.6155C341.471 81.4262 318.376 82.2753 293.174 96.846C237.558 128.959 192.504 215.059 192.504 289.169C192.504 329.739 206.005 358.303 227.351 370.598C231.003 372.687 244.571 380.55 250.107 383.742C229.542 370.989 216.704 342.798 216.704 303.145Z" fill="#92E3A9"/>
<path opacity="0.3" d="M216.704 303.145C216.704 229.035 261.774 142.936 317.357 110.822C341.862 96.6931 364.295 95.3855 381.736 104.692L359.133 91.6155C341.471 81.4262 318.376 82.2753 293.174 96.846C237.558 128.959 192.504 215.059 192.504 289.169C192.504 329.739 206.005 358.303 227.351 370.598C231.003 372.687 244.571 380.55 250.107 383.742C229.542 370.989 216.704 342.798 216.704 303.145Z" fill="white"/>
<path d="M356.908 126.361C365.688 138.079 370.392 156.725 369.339 180.976C366.809 240.413 330.654 311.127 288.606 338.791C275.835 347.197 263.965 350.678 253.742 349.744C266.512 366.726 287.91 369.155 312.805 352.767C354.87 325.103 391.025 254.44 393.556 194.935C395.288 153.532 380.31 128.45 356.908 126.361Z" fill="#92E3A9"/>
<path opacity="0.15" d="M356.908 126.361C365.688 138.079 370.392 156.725 369.339 180.976C366.809 240.413 330.654 311.127 288.606 338.791C275.835 347.197 263.965 350.678 253.742 349.744C266.512 366.726 287.91 369.155 312.805 352.767C354.87 325.103 391.025 254.44 393.556 194.935C395.288 153.532 380.31 128.45 356.908 126.361Z" fill="black"/>
<path d="M242.347 144.566L266.546 158.542L268.482 155.944L244.283 141.934C243.62 142.834 242.992 143.632 242.347 144.566Z" fill="#92E3A9"/>
<path d="M231.24 225.503L206.956 211.56C206.616 212.494 206.293 213.462 205.971 214.413L230.17 228.39C230.51 227.405 230.816 226.437 231.24 225.503Z" fill="#92E3A9"/>
<path d="M341.624 85.451L365.841 99.4782C366.826 99.6481 367.811 99.8179 368.779 100.022L344.562 86.0454C343.594 85.7906 342.609 85.6038 341.624 85.451Z" fill="#92E3A9"/>
<path d="M220.117 266.549C220.304 265.496 220.508 264.426 220.711 263.373L196.512 249.397C196.291 250.45 196.087 251.502 195.9 252.572L220.117 266.549Z" fill="#92E3A9"/>
<path d="M266.139 117.394L290.338 131.371C291.17 130.573 292.036 129.774 292.852 129.01L268.601 115.034C267.803 115.798 266.903 116.596 266.139 117.394Z" fill="#92E3A9"/>
<path d="M220.236 336.413C220.015 335.479 219.811 334.528 219.607 333.577L219.421 333.153L195.34 319.244C195.561 320.331 195.782 321.401 196.036 322.454L220.236 336.413Z" fill="#92E3A9"/>
<path d="M320.515 86.0793C319.497 86.2831 318.444 86.5548 317.408 86.8095L341.624 100.786C342.677 100.514 343.73 100.276 344.766 100.073L320.515 86.0793Z" fill="#92E3A9"/>
<path d="M318.868 110.007L294.669 96.0818C294.159 96.3705 293.667 96.6082 293.174 96.8969L291.697 97.7969L315.896 111.773L317.357 110.873L318.868 110.007Z" fill="#92E3A9"/>
<path d="M221.832 177.596L246.032 191.572L247.458 188.923L223.259 174.947C222.749 175.796 222.291 176.679 221.832 177.596Z" fill="#92E3A9"/>
<path d="M230.51 363.075C229.967 362.141 229.457 361.207 228.931 360.239L204.748 346.28C205.258 347.248 205.801 348.182 206.344 349.116L230.51 363.075Z" fill="#92E3A9"/>
<path d="M192.504 289.441L216.704 303.434V303.145C216.704 302.109 216.704 301.039 216.704 299.986L192.487 286.01C192.487 287.063 192.487 288.133 192.487 289.169L192.504 289.441Z" fill="#92E3A9"/>
<path d="M317.357 110.822C261.774 142.935 216.703 229.035 216.703 303.145C216.703 377.255 261.774 411.338 317.357 379.242C372.939 347.146 418.044 261.046 418.044 186.919C418.044 112.792 372.956 78.726 317.357 110.822ZM393.505 194.935C390.974 254.372 354.819 325.086 312.755 352.75C270.69 380.414 238.678 354.618 241.209 295.13C243.739 235.641 279.928 164.978 321.959 137.314C363.99 109.65 396.052 135.446 393.505 194.935Z" fill="#92E3A9"/>
<g opacity="0.15">
<path d="M296.757 159.68C297.572 158.78 298.371 157.863 299.203 156.98L292.834 129.01C291.985 129.774 291.136 130.556 290.321 131.354L296.757 159.68Z" fill="black"/>
<path d="M315.879 111.705V141.696C316.864 140.932 317.849 140.185 318.851 139.471V109.99L317.357 110.822L315.879 111.705Z" fill="black"/>
<path d="M336.343 129.774C337.43 129.35 338.516 128.959 339.586 128.62L344.681 100.056C343.645 100.26 342.592 100.497 341.539 100.752L336.343 129.774Z" fill="black"/>
<path d="M254.285 232.975L255.355 230.156L231.24 225.486C230.901 226.437 230.561 227.388 230.238 228.339L254.285 232.975Z" fill="black"/>
<path d="M265.714 206.466L267.072 203.749L247.441 188.906L246.032 191.572L265.714 206.466Z" fill="black"/>
<path d="M413.917 151.325L392.571 171.347C392.741 172.536 392.893 173.741 393.029 174.998L414.783 154.619C414.461 153.533 414.206 152.412 413.917 151.325Z" fill="black"/>
<path d="M241.939 285.433L216.738 299.969C216.738 301.039 216.738 302.092 216.738 303.145V303.434L241.633 289.067C241.684 287.861 241.82 286.639 241.939 285.433Z" fill="black"/>
<path d="M246.015 260.809C246.269 259.739 246.541 258.669 246.796 257.582L220.694 263.339C220.491 264.392 220.287 265.462 220.1 266.515L246.015 260.809Z" fill="black"/>
<path d="M356.399 126.344C357.435 126.429 358.437 126.548 359.422 126.718L368.796 99.9368C367.811 99.733 366.826 99.5462 365.824 99.3764L356.399 126.344Z" fill="black"/>
<path d="M386.016 148.625C386.491 149.627 386.95 150.679 387.391 151.749L404.883 128.195C404.356 127.244 403.796 126.327 403.184 125.427L386.016 148.625Z" fill="black"/>
<path d="M373.652 132.848C374.451 133.46 375.232 134.105 375.996 134.801L389.174 109.566C388.376 108.937 387.578 108.343 386.746 107.766L373.652 132.848Z" fill="black"/>
<path d="M279.928 181.74L281.762 178.972L268.465 155.927L266.529 158.542L279.928 181.74Z" fill="black"/>
<path d="M338.483 329.807C337.684 330.741 336.784 331.641 336.054 332.524L342.422 360.579C343.271 359.815 344.121 358.982 344.936 358.184L338.483 329.807Z" fill="black"/>
<path d="M370.052 281.561C369.611 282.478 369.152 283.378 368.694 284.278L388.376 299.154L389.752 296.454L370.052 281.561Z" fill="black"/>
<path d="M355.685 307L353.851 309.785L367.182 332.881C367.828 332.015 368.49 331.183 369.118 330.283L355.685 307Z" fill="black"/>
<path d="M381.396 254.406C381.057 255.357 380.734 256.308 380.377 257.242L404.492 261.896C404.832 260.945 405.154 259.994 405.477 259.043L381.396 254.406Z" fill="black"/>
<path d="M389.361 226.233C389.14 227.303 388.92 228.373 388.665 229.426L414.647 223.737C414.834 222.667 415.004 221.614 415.191 220.561L389.361 226.233Z" fill="black"/>
<path d="M418.044 183.795L393.318 197.975C393.318 199.163 393.165 200.352 393.08 201.558L418.044 187.208V186.919C418.044 185.866 418.044 184.831 418.044 183.795Z" fill="black"/>
<path d="M318.851 378.342V348.386C317.866 349.15 316.864 349.897 315.879 350.61V380.091L317.357 379.242C317.849 378.953 318.359 378.631 318.851 378.342Z" fill="black"/>
<path d="M247.9 339.674C247.441 338.638 247 337.568 246.575 336.447L228.931 360.222C229.44 361.19 229.984 362.141 230.527 363.058L247.9 339.674Z" fill="black"/>
<path d="M260.008 356.401C259.227 355.756 258.463 355.077 257.715 354.346L244.469 379.684C245.251 380.329 246.049 380.94 246.864 381.535L260.008 356.401Z" fill="black"/>
<path d="M297.81 360.545C296.723 360.952 295.654 361.309 294.584 361.649L289.489 390.128C290.542 389.924 291.595 389.703 292.648 389.449L297.81 360.545Z" fill="black"/>
<path d="M277.347 363.653C276.328 363.551 275.343 363.398 274.358 363.211L265.086 389.873C266.071 390.111 267.056 390.298 268.041 390.467L277.347 363.653Z" fill="black"/>
<path d="M241.888 316.187C241.752 314.965 241.633 313.708 241.531 312.434L219.454 333.034C219.692 334.172 219.93 335.292 220.185 336.43L241.888 316.187Z" fill="black"/>
</g>
<path d="M344.528 501.072L229.491 434.655V371.77L253.708 385.746L284.004 403.255V424.211L314.266 441.668V462.641L344.528 480.099V501.072Z" fill="#263238"/>
<path d="M253.742 385.78L380.836 312.4L411.081 329.875L284.004 403.255L253.742 385.78Z" fill="#455A64"/>
<path d="M284.004 403.255V424.211L411.081 350.831V329.875L284.004 403.255Z" fill="#37474F"/>
<path d="M284.004 424.211L411.081 350.831L441.343 368.306L314.266 441.668L284.004 424.211Z" fill="#455A64"/>
<path d="M314.266 441.669V462.641L441.343 389.262V368.306L314.266 441.669Z" fill="#37474F"/>
<path d="M314.266 462.641L441.343 389.262L471.606 406.736L344.528 480.099L314.266 462.641Z" fill="#455A64"/>
<path d="M344.528 480.099V501.072L471.606 427.692V406.736L344.528 480.099Z" fill="#37474F"/>
<path d="M380.921 187.785C378.391 247.223 342.219 317.937 300.171 345.617C284.547 355.892 270.316 358.796 258.7 355.314C246.813 344.463 240.02 323.676 241.209 295.163C243.756 235.726 279.928 165.012 321.959 137.348C337.6 127.057 351.865 124.17 363.463 127.669C375.419 138.537 382.144 159.255 380.921 187.785Z" fill="#92E3A9"/>
<path opacity="0.9" d="M380.921 187.785C378.391 247.223 342.219 317.937 300.171 345.617C284.547 355.892 270.316 358.796 258.7 355.314C246.813 344.463 240.02 323.676 241.209 295.163C243.756 235.726 279.928 165.012 321.959 137.348C337.6 127.057 351.865 124.17 363.463 127.669C375.419 138.537 382.144 159.255 380.921 187.785Z" fill="white"/>
<path opacity="0.1" d="M299.984 315.151C286.857 316.671 274.71 322.847 265.748 332.558C260.906 337.755 256.958 343.717 254.064 350.203C255.462 352.03 257.013 353.734 258.7 355.297C261.201 356.028 263.776 356.472 266.376 356.622C267.056 354.924 267.565 353.141 268.159 351.425C271.096 343.439 276.33 336.499 283.201 331.48C290.073 326.461 298.275 323.586 306.777 323.218C312.602 323.065 318.376 324.118 324.167 324.577C326.459 322.046 328.701 319.482 330.959 316.697C320.702 316.17 310.122 314.133 299.984 315.151ZM297.471 228.186C309.358 229.731 322.333 230.394 332.726 224.314C344.494 217.419 350.081 203.749 355.753 191.369C361.035 179.872 368.252 167.729 379.783 163.28C377.389 147.198 371.649 135.09 363.446 127.618C357.852 126.008 351.954 125.757 346.243 126.887C340.49 133.475 336.299 141.277 333.982 149.711C331.265 159.221 330.314 169.326 325.95 178.173C321.505 187.069 313.961 194.033 304.739 197.754C297.471 200.641 289.574 201.337 281.847 202.526C276.457 203.322 271.129 204.491 265.901 206.024C261.867 214.036 258.273 222.262 255.134 230.665C257.219 229.599 259.389 228.707 261.621 227.999C273.152 224.45 285.583 226.657 297.471 228.186ZM309.63 168.748C313.434 162.176 314.725 154.517 316.813 147.198C317.561 144.464 318.512 141.798 319.395 139.132C316.677 141.045 313.983 143.128 311.311 145.381C307.473 154.704 303.737 164.061 296.656 171.092C293.046 174.628 288.736 177.37 284.004 179.141C283.11 179.441 282.188 179.651 281.253 179.77C279.521 182.317 277.822 184.921 276.158 187.582C279.989 187.274 283.786 186.626 287.502 185.646C296.703 182.885 304.578 176.858 309.647 168.697L309.63 168.748ZM380.955 179.057C377.634 180.778 374.625 183.045 372.056 185.764C365.739 192.693 362.342 201.677 358.471 210.236C353.07 222.429 346.023 234.843 334.288 241.16C326.476 245.355 317.306 246.408 308.526 246.645C291.799 247.104 274.816 244.947 258.463 248.531C254.938 249.3 251.492 250.398 248.171 251.808C247.039 255.872 246.049 259.92 245.2 263.95C249.008 261.935 253.037 260.367 257.206 259.28C281.372 253.167 308.152 266.583 331.299 257.582C348.281 250.942 358.623 234.079 366.962 217.878C370.358 211.272 374.009 204.292 379.868 199.911C380.321 195.869 380.638 191.861 380.819 187.887C381.04 184.746 381.074 181.842 381.023 179.006L380.955 179.057ZM320.668 278.045C307.592 278.521 294.533 277.298 281.457 277.111C274.756 276.747 268.041 277.435 261.553 279.149C255.875 281.07 250.533 283.872 245.726 287.454C244.249 288.506 242.822 289.593 241.413 290.697C241.311 292.209 241.209 293.703 241.141 295.18C240.411 312.417 242.601 326.801 247.068 337.908C249.954 335.402 252.521 332.55 254.71 329.416C263.693 317.274 272.354 303.841 285.974 297.337C300.595 290.358 317.832 292.854 333.728 289.661C340.681 288.241 347.361 285.712 353.512 282.172C356.025 277.462 358.397 272.662 360.627 267.771C359.948 268.179 359.252 268.569 358.555 268.96C347.059 275.26 333.795 277.519 320.736 277.995L320.668 278.045Z" fill="#92E3A9"/>
<path d="M459.033 161.895C459.033 167.669 457.946 172.797 450.881 174.037C458.115 174.343 458.625 179.132 459.033 185.823C459.27 179.183 459.899 174.343 466.454 174.037C459.695 172.916 459.033 167.669 459.033 161.895Z" fill="#92E3A9"/>
<path d="M294.204 469.289C294.204 475.063 293.117 480.191 286.052 481.431C293.287 481.737 293.796 486.526 294.204 493.217C294.441 486.56 295.07 481.737 301.625 481.431C294.832 480.293 294.204 475.063 294.204 469.289Z" fill="#92E3A9"/>
<path d="M241.1 291.384C241.1 293.914 240.625 296.139 237.534 296.682C240.693 296.818 240.931 298.941 241.1 301.777C241.202 298.873 241.474 296.682 244.344 296.682C241.372 296.19 241.1 293.914 241.1 291.384Z" fill="#92E3A9"/>
<path d="M227.209 301.318C227.209 307.075 226.105 312.204 219.058 313.444C226.292 313.749 226.802 318.538 227.209 325.246C227.43 318.589 228.058 313.766 234.63 313.444C227.838 312.408 227.209 307.075 227.209 301.318Z" fill="#E0E0E0"/>
<path d="M220.586 272.381C220.586 275.353 220.026 277.968 216.409 278.613C220.111 278.766 220.382 281.246 220.586 284.659C220.705 281.263 221.028 278.766 224.407 278.613C220.909 278.036 220.586 275.353 220.586 272.381Z" fill="#E0E0E0"/>
<path d="M439.418 144.539C439.418 147.936 439.333 151.162 434.459 151.926C439.554 151.926 439.214 155.102 439.469 159.178C439.605 155.102 439.961 152.181 443.986 151.994C439.826 151.298 439.944 149.379 439.418 144.539Z" fill="#E0E0E0"/>
<path d="M481.772 301.709C481.415 308.077 480.906 310.828 475.149 311.593C481.007 311.915 481.5 315.804 481.84 321.222C482.026 315.804 482.502 311.864 487.851 311.593C482.349 310.71 482.213 308.162 481.772 301.709Z" fill="#E0E0E0"/>
<path d="M270.802 469.34C270.599 473.059 270.31 474.655 266.947 475.114C270.344 475.301 270.65 477.542 270.853 480.701C270.955 477.542 271.227 475.25 274.352 475.114C271.193 474.57 271.057 473.11 270.802 469.34Z" fill="#E0E0E0"/>
<path d="M469.748 155.985C469.748 158.04 469.748 160.01 466.742 160.469C469.867 160.469 469.629 162.388 469.782 164.85C469.867 162.388 470.071 160.621 472.499 160.503C469.986 160.078 470.054 158.923 469.748 155.985Z" fill="#E0E0E0"/>
<path d="M476.15 320.22C476.15 322.257 476.15 324.227 473.145 324.686C476.252 324.686 476.015 326.622 476.167 329.084C476.252 326.622 476.473 324.839 478.902 324.737C476.388 324.295 476.456 323.141 476.15 320.22Z" fill="#E0E0E0"/>
<path d="M286.477 461.239C286.477 463.277 286.477 465.247 283.471 465.706C286.596 465.706 286.358 467.625 286.511 470.087C286.596 467.625 286.816 465.858 289.245 465.74C286.765 465.332 286.833 464.16 286.477 461.239Z" fill="#E0E0E0"/>
<path d="M713.615 416.532L767.092 385.658L847.825 432.257L886.561 409.892L805.845 363.293L832.066 348.145L789.61 323.605L763.39 338.753L716.587 311.769L677.834 334.151L724.586 361.204L624.884 418.671L656.08 436.673L907.721 504.228L912.612 501.409C915.012 491.763 916.999 481.919 918.573 471.877L713.615 416.532Z" fill="#263238"/>
<path d="M718.642 179.648L716.638 180.803V115.557L692.421 101.581L662.465 118.869L687.174 25.9763L662.974 12L621.317 36.0467L554 287.756V323.843L578.2 337.819L653.753 294.175V320.175L677.97 334.151L716.587 311.769V257.834L742.791 242.702V193.624L718.642 179.648ZM653.753 217.161L633.256 229.049L653.753 151.916V217.161Z" fill="black"/>
<path opacity="0.3" d="M718.642 179.648L716.638 180.803V115.557L692.421 101.581L662.465 118.869L687.174 25.9763L662.974 12L621.317 36.0467L554 287.756V323.843L578.2 337.819L653.753 294.175V320.175L677.97 334.151L716.587 311.769V257.834L742.791 242.702V193.624L718.642 179.648ZM653.753 217.161L633.256 229.049L653.753 151.916V217.161Z" fill="black"/>
<path d="M716.621 208.755V115.557L677.885 137.923V231.138L624.391 262.011L687.174 25.9763L645.517 50.023L578.2 301.732V337.752L677.885 280.216V334.151L716.621 311.769V257.834L742.841 242.702V193.624L716.621 208.755Z" fill="black"/>
<path opacity="0.3" d="M716.621 208.755V115.557L677.885 137.923V231.138L624.391 262.011L687.174 25.9763L645.517 50.023L578.2 301.732V337.752L677.885 280.216V334.151L716.621 311.769V257.834L742.841 242.702V193.624L716.621 208.755Z" fill="white"/>
<path d="M687.174 25.9763L662.974 12L621.317 36.0468L645.517 50.0231L687.174 25.9763Z" fill="black"/>
<path opacity="0.5" d="M687.174 25.9763L662.974 12L621.317 36.0468L645.517 50.0231L687.174 25.9763Z" fill="white"/>
<path d="M692.422 101.581L716.621 115.557L677.885 137.923L660.122 127.665L662.465 118.869L692.422 101.581Z" fill="black"/>
<path opacity="0.5" d="M692.422 101.581L716.621 115.557L677.885 137.923L660.122 127.665L662.465 118.869L692.422 101.581Z" fill="white"/>
<path d="M677.885 231.138L653.668 217.161L633.171 228.998L624.391 262.011L677.885 231.138Z" fill="black"/>
<path opacity="0.5" d="M677.885 231.138L653.668 217.161L633.171 228.998L624.391 262.011L677.885 231.138Z" fill="white"/>
<path d="M742.842 193.624L718.642 179.648L716.621 180.803V208.755L742.842 193.624Z" fill="black"/>
<path opacity="0.5" d="M716.621 208.755L742.842 193.624L718.642 179.648L716.621 180.803V208.755Z" fill="white"/>
<path d="M578.2 301.732L554 287.756L621.317 36.0468L645.517 50.0231L578.2 301.732Z" fill="black"/>
<path opacity="0.15" d="M578.2 301.732L554 287.756L621.317 36.0468L645.517 50.0231L578.2 301.732Z" fill="black"/>
<path d="M278.066 633.162L235.559 608.622L209.356 623.753L162.638 596.786L123.885 619.151L170.603 646.119L70.9174 703.671L102.114 721.689L353.772 789.244L395.429 765.198L159.615 701.549L213.109 670.658L293.825 717.274L332.578 694.892L251.845 648.293L278.066 633.162Z" fill="#263238"/>
<path d="M164.642 464.648L162.638 465.819V400.506L138.421 386.53L108.465 403.902L133.174 311.01L108.974 297.034L67.3171 321.047L-0.00012207 572.773V608.792L24.2674 622.768L99.753 579.192V605.175L123.953 619.151L162.706 596.786V542.833L188.909 527.702V478.624L164.642 464.648ZM99.6851 502.161L79.1876 514.049L99.6851 436.984V502.161Z" fill="black"/>
<path opacity="0.3" d="M164.642 464.648L162.638 465.819V400.506L138.421 386.53L108.465 403.902L133.174 311.01L108.974 297.034L67.3171 321.047L-0.00012207 572.773V608.792L24.2674 622.768L99.753 579.192V605.175L123.953 619.151L162.706 596.786V542.833L188.909 527.702V478.624L164.642 464.648ZM99.6851 502.161L79.1876 514.049L99.6851 436.984V502.161Z" fill="black"/>
<path d="M162.638 493.772V400.557L123.885 422.923V516.138L70.3909 547.011L133.191 310.976L91.5337 335.023L24.1995 586.732V622.768L123.885 565.216V619.151L162.638 596.786V542.833L188.841 527.702V478.624L162.638 493.772Z" fill="black"/>
<path opacity="0.3" d="M162.638 493.772V400.557L123.885 422.923V516.138L70.3909 547.011L133.191 310.976L91.5337 335.023L24.1995 586.732V622.768L123.885 565.216V619.151L162.638 596.786V542.833L188.841 527.702V478.624L162.638 493.772Z" fill="white"/>
<path d="M133.191 310.976L108.974 297L67.3173 321.047L91.5338 335.023L133.191 310.976Z" fill="black"/>
<path opacity="0.5" d="M133.191 310.976L108.974 297L67.3173 321.047L91.5338 335.023L133.191 310.976Z" fill="white"/>
<path d="M138.422 386.581L162.638 400.557L123.885 422.923L106.121 412.682L108.465 403.886L138.422 386.581Z" fill="black"/>
<path opacity="0.5" d="M138.422 386.581L162.638 400.557L123.885 422.923L106.121 412.682L108.465 403.886L138.422 386.581Z" fill="white"/>
<path d="M123.885 516.138L99.6852 502.161L79.1877 513.998L70.391 547.011L123.885 516.138Z" fill="black"/>
<path opacity="0.5" d="M123.885 516.138L99.6852 502.161L79.1877 513.998L70.391 547.011L123.885 516.138Z" fill="white"/>
<path d="M188.842 478.624L164.642 464.648L162.638 465.819V493.772L188.842 478.624Z" fill="black"/>
<path opacity="0.5" d="M162.638 493.772L188.842 478.624L164.642 464.648L162.638 465.819V493.772Z" fill="white"/>
<path d="M24.1994 586.732L-0.00012207 572.773L67.3171 321.047L91.5337 335.023L24.1994 586.732Z" fill="black"/>
<path opacity="0.15" d="M24.1994 586.732L-0.00012207 572.773L67.3171 321.047L91.5337 335.023L24.1994 586.732Z" fill="black"/>
<path d="M508.227 519.943C500.924 516.731 493.197 514.503 485.264 513.323C480.41 512.548 475.453 512.59 470.614 513.447C467.168 514.126 463.831 515.242 460.689 516.766C449.922 521.92 448.365 527.657 448.018 532.511C447.67 537.365 450.453 543.861 459.352 549.862L612.091 653C639.892 638.723 665.729 621.146 689 600.681C622.638 570.956 514.343 522.467 508.227 519.943Z" fill="#263238"/>
<path d="M557.101 302.882C566.476 304.647 570.139 305.265 574.625 312.749C579.111 320.233 586.729 348.052 588.816 353.824C590.904 359.596 591.527 361.697 590.648 368.122C589.75 374.83 585.649 386.744 583.927 393.275C583.122 396.294 582.59 399.242 582.005 402.331C581.194 405.492 580.154 408.595 578.892 411.615C578.351 413.088 577.408 414.393 576.163 415.393C575.394 416.046 574.332 416.117 573.599 416.717C572.867 417.317 572.666 418.376 571.64 418.87C570.615 419.364 569.186 419.082 568.179 419.647C567.186 420.349 566.153 420.997 565.084 421.589C564.101 421.864 563.202 422.367 562.466 423.054C561.807 423.742 561.184 425.295 559.994 425.172C558.804 425.048 558.456 423.813 558.401 422.754C558.443 420.675 559.174 418.665 560.488 417.017C561.656 415.182 562.934 413.413 564.315 411.721C565.66 410.152 566.624 408.313 567.135 406.338C567.557 405.014 567.428 403.337 565.652 404.096C563.583 405.014 561.385 406.92 558.895 406.496C557.174 406.214 557.064 404.908 558.071 403.813C559.727 402.01 561.245 400.092 562.612 398.077C564.004 396.011 565.158 393.84 566.604 391.828C567.386 390.782 568.236 389.786 569.15 388.845C571.677 386.197 571.567 382.579 571.86 379.207C572.263 374.53 572.611 362.527 572.611 362.527L561.257 335.573L557.101 302.882Z" fill="#FFBDA7"/>
<path d="M571.878 379.207C571.988 373.647 572.226 368.087 572.446 362.527C568.783 353.948 564.865 344.504 561.276 335.573C565.231 344.504 569.076 353.477 572.812 362.491C572.519 368.069 572.263 373.647 571.878 379.207V379.207Z" fill="white"/>
<path d="M493.797 512.211C497.02 511.117 499.419 511.011 499.382 512.547C498.945 514.44 498.25 516.268 497.313 517.984L494.749 521.39L493.522 524.744C493.522 524.744 492.021 526.509 491.929 526.686C491.837 526.862 491.343 520.419 491.343 520.419C491.343 520.419 489.53 513.006 493.797 512.211Z" fill="#263238"/>
<path d="M528.406 381.166C528.406 381.166 521.081 389.551 516.741 405.261C512.737 419.861 509.679 434.688 507.585 449.654C506.542 456.344 504.857 464.782 502.367 477.897C500.444 487.994 494.401 518.954 494.401 518.954C494.401 518.954 497.88 524.532 502.092 526.227C508.135 528.663 513.958 527.551 514.727 522.343C514.727 522.343 518.719 516.201 524.78 500.35C527.694 493.073 530.021 485.59 531.739 477.967C532.338 473.183 532.516 468.359 532.27 463.546L556.588 422.789C559.276 418.324 562.496 414.177 566.183 410.433C568.461 408.185 570.248 405.52 571.439 402.595C575.467 392.005 569.607 377.76 569.607 377.76L528.406 381.166Z" fill="#263238"/>
<path d="M507.677 449.637C503.758 472.849 499.272 495.972 494.493 519.025C498.704 495.866 503.209 472.76 507.677 449.637Z" fill="white"/>
<path d="M498.192 536.871L496.891 536.624C496.983 536.147 506.725 487.817 513.537 467.518C520.349 447.219 538.203 406.902 538.386 406.496L539.613 407.008C539.43 407.397 521.612 447.695 514.819 467.924C508.025 488.152 498.301 536.394 498.192 536.871Z" fill="black"/>
<path d="M560.415 394.741H520.477C519.015 398.159 517.792 401.668 516.815 405.243C513.122 418.686 510.279 432.332 508.3 446.107C509.27 452.408 510.369 458.886 511.376 463.334C514.068 475.09 515.752 483.387 517.877 488.241C519.927 492.344 522.347 496.266 525.11 499.961C527.953 492.832 530.225 485.503 531.903 478.038C532.503 473.254 532.681 468.43 532.434 463.617L556.24 423.813L557.943 417.546C563.857 408.067 563.18 400.954 560.415 394.741Z" fill="black"/>
<path d="M461.055 527.868C460.341 527.551 459.462 530.251 459.389 531.222C459.316 532.193 461.22 536.147 466.219 539.059C471.218 541.972 479.807 543.596 483.029 544.567C486.252 545.538 488.834 548.097 493.083 550.092C496.855 551.857 502.55 552.792 505.04 551.716C505.521 551.439 505.933 551.066 506.25 550.621C506.566 550.176 506.778 549.67 506.871 549.138C507.549 547.144 507.494 546.685 507.238 546.614L461.055 527.868Z" fill="#37474F"/>
<path d="M509.014 542.201C508.686 544.24 507.985 546.206 506.945 548.009C506.217 548.537 505.386 548.92 504.503 549.135C503.619 549.351 502.7 549.394 501.799 549.262C497.921 548.994 494.187 547.739 490.977 545.626C488.525 544.088 485.879 542.86 483.103 541.972C479.283 541.084 475.532 539.94 471.878 538.548C469.152 537.437 466.614 535.938 464.352 534.099C462.52 532.44 460.817 530.569 461 528.239C461.411 526.772 462.283 525.464 463.496 524.494C464.71 523.523 466.204 522.939 467.776 522.82C470.784 522.673 473.792 523.111 476.62 524.109C479.368 525.005 482.212 525.597 485.099 525.874C487.076 526.033 489.402 527.639 490.94 525.962C492.771 524.02 493.486 519.431 494.712 517.136C494.914 516.766 495.189 516.36 495.61 516.271C496.031 516.183 496.727 516.677 497.111 517.172C498.904 519.329 501.201 521.046 503.813 522.185C510.882 525.556 514.159 523.773 514.159 523.773L514.819 522.361C514.819 522.361 516.229 523.12 514.434 526.297C512.92 528.91 511.646 531.644 510.625 534.47C509.735 536.967 509.193 539.567 509.014 542.201V542.201Z" fill="#455A64"/>
<path d="M461.055 528.239C463.271 520.331 472.574 522.449 478.58 524.444C480.708 525.167 482.913 525.658 485.154 525.909C482.889 525.811 480.648 525.425 478.488 524.762C472.555 522.997 463.637 520.737 461.055 528.292V528.239Z" fill="white"/>
<path d="M477.939 524.462C474.917 524.726 474.093 529.439 474.093 529.439C476.8 530.841 479.746 531.761 482.791 532.158C484.909 532.511 487.087 532.09 488.899 530.977C490.711 529.863 492.027 528.138 492.588 526.139C493.87 522.202 492.698 516.695 492.46 514.912C492.321 514.3 492.434 513.659 492.776 513.126C493.118 512.592 493.661 512.207 494.291 512.053C493.773 512.099 493.27 512.248 492.814 512.49C492.358 512.732 491.959 513.063 491.641 513.46C491.323 513.857 491.093 514.314 490.967 514.801C490.84 515.287 490.818 515.794 490.903 516.289C490.995 518.407 490.903 522.591 489.97 523.985C489.036 525.38 484.366 525.997 477.939 524.462Z" fill="#455A64"/>
<path d="M553.64 381.167C558.038 386.177 560.611 392.44 560.964 398.995C561.266 405.362 559.194 411.623 555.123 416.646C553.603 438.11 549.208 479.433 549.208 479.433C555.086 485.258 556.533 489.035 560.012 499.485C562.081 505.839 569.845 526.262 571.768 531.946C561.477 533.164 555.874 543.031 555.874 543.031C555.874 543.031 537.745 517.225 529.029 502.044C522.565 490.818 519.58 486.723 517.657 480.086C515.277 471.807 514.636 467.535 512.511 453.608C510.387 439.681 508.355 421.959 507.311 408.226C506.267 394.493 505.48 379.984 505.48 379.984L553.64 381.167Z" fill="#263238"/>
<path d="M555.947 542.978C545.381 527.974 535.017 512.794 525.934 496.908C522.947 492.275 520.38 487.403 518.261 482.345C516.567 477.148 515.269 471.838 514.379 466.459C509.706 437.78 506.747 408.866 505.516 379.86L507.055 401.572C508.446 423.301 511.248 444.924 514.837 466.388C516.137 473.449 517.492 480.739 520.825 487.234C531.514 506.406 543.237 525.024 555.947 543.013V542.978Z" fill="white"/>
<path d="M530.329 486.123C525 473.025 518.609 401.731 518.939 377.089H517.602C517.492 385.332 518.133 398.765 519.232 413.504C514.892 411.386 512.09 407.503 512.09 387.98H510.754C510.754 407.609 513.409 412.357 519.342 414.987C521.576 444.183 525.568 477.95 529.084 486.617C534.302 499.432 561.532 542.731 561.788 543.102L562.942 542.431C562.667 542.043 535.511 498.849 530.329 486.123Z" fill="black"/>
<path d="M554.445 540.789C552.815 543.013 550.966 544.584 555.599 547.55C559.261 549.827 559.389 551.663 560.506 554.099C561.234 556.474 561.531 558.952 561.385 561.424C561.385 561.424 567.538 552.475 565.744 546.703C563.949 540.931 554.445 540.789 554.445 540.789Z" fill="#455A64"/>
<path d="M574.167 535.67C575.9 537.433 577.939 538.89 580.191 539.977C581.748 540.913 583.359 541.742 583.854 543.508C583.854 543.702 582.938 544.761 582.957 544.955C583.036 545.797 583.005 546.645 582.865 547.479C582.517 550.392 580.869 552.545 580.503 555.44C580.383 556.596 580.169 557.741 579.862 558.865C579.598 560.232 579.482 561.622 579.514 563.013C579.422 564.46 579.313 565.907 579.239 567.355C579.157 567.97 579.157 568.593 579.239 569.208C579.367 569.826 569.149 574.786 565.029 576.693C564.785 576.806 564.535 576.906 564.279 576.993C561.765 577.652 559.087 577.401 556.752 576.287C548.549 573.409 549.062 570.55 549.062 570.55C549.103 569.365 549.492 568.217 550.182 567.236C550.872 566.255 551.836 565.483 552.962 565.007C553.461 564.727 553.989 564.496 554.537 564.319V564.319C556.578 563.588 558.804 563.483 560.909 564.019C561.325 562.844 561.517 561.606 561.477 560.365C561.645 558.51 561.675 556.646 561.568 554.787C561.205 552.687 560.36 550.691 559.096 548.944C557.357 546.632 555.434 543.649 554.28 542.025C553.127 540.401 552.815 536.482 559.646 531.769C566.201 527.268 570.999 528.239 571.933 530.092C572.453 532.028 573.202 533.9 574.167 535.67V535.67Z" fill="#455A64"/>
<path d="M548.952 570.567C548.952 565.113 556.167 562.377 560.873 563.984C556.057 563.119 549.648 565.272 548.952 570.567Z" fill="white"/>
<path opacity="0.1" d="M556.533 566.843C557.08 565.497 558.114 564.387 559.444 563.719C559.927 563.772 560.404 563.861 560.873 563.983C560.049 564.742 557.101 565.872 556.533 566.843Z" fill="black"/>
<path d="M584.806 545.22C586.637 545.961 585.117 548.75 582.975 553.075C581.039 556.271 580.266 559.998 580.778 563.666C581.217 567.496 580.283 569.367 578.562 570.726C576.841 572.086 564.059 577.469 564.059 577.469C567.098 573.769 568.859 569.245 569.095 564.531C569.791 556.093 570.633 550.674 574.991 546.985C576.346 545.928 577.953 545.213 579.667 544.905C581.381 544.597 583.147 544.705 584.806 545.22V545.22Z" fill="black"/>
<path d="M548.952 570.55C549.153 572.209 554.042 575.563 559.811 575.492C565.579 575.422 566.073 574.239 566.97 567.726C567.868 561.212 568.49 552.157 571.42 548.309C574.35 544.461 578.196 542.131 583.817 543.543C584.458 543.843 586.198 545.52 585.557 547.073C585.557 547.073 585.557 545.838 583.25 545.185C581.272 544.637 578.91 544.69 575.614 547.444C571.75 550.639 570.889 558.176 570.45 564.637C570.01 571.097 567.923 577.293 562.374 577.875C559.979 578.188 557.542 577.993 555.233 577.304C552.925 576.615 550.8 575.448 549.007 573.886C548.66 572.802 548.641 571.644 548.952 570.55Z" fill="#37474F"/>
<path d="M515.881 262.354C515.133 261.34 514.673 260.155 514.544 258.917C514.416 257.679 514.624 256.43 515.148 255.293C516.082 252.999 518.023 250.581 523.682 247.756C530.42 244.402 548.915 242.002 558.071 253.67C559.39 255.435 541.188 288.355 542.085 295.186C537.361 290.402 521.777 273.58 521.777 273.58C518.115 272.062 515.844 270.774 515.057 267.42C514.772 265.69 515.06 263.917 515.881 262.354Z" fill="#263238"/>
<path d="M521.777 273.492C516.284 272.098 512.786 267.455 515.881 262.301C513.537 267.597 516.668 271.445 521.777 273.492Z" fill="white"/>
<path d="M515.881 262.354C513.574 259.918 514.141 256 515.881 253.387C517.901 250.852 520.597 248.894 523.682 247.721C522.275 248.502 520.917 249.362 519.616 250.298C515.789 252.858 512.933 258.241 515.954 262.354H515.881Z" fill="white"/>
<path d="M518.664 271.727C518.664 271.727 513.665 279.582 514.233 280.235C515.382 281.116 516.607 281.902 517.895 282.583L518.664 271.727Z" fill="#F0997A"/>
<path d="M518.664 271.727C517.419 274.251 515.917 276.634 514.691 279.141C514.526 279.547 514.178 280.023 514.416 280.306C514.73 280.655 515.101 280.953 515.514 281.188C515.02 280.923 514.196 280.712 514.086 280.076C515.094 277.057 516.644 274.231 518.664 271.727Z" fill="white"/>
<path d="M524.853 257.359C521.502 258.894 518.609 261.366 517.529 268.444C517.254 270.297 518.756 272.821 518.078 275.275C515.166 285.866 518.627 294.692 520.752 296.545C522.18 297.851 529.688 298.434 533.57 297.375C538.496 296.051 549.208 291.391 554.317 283.96C560.323 275.134 561.642 263.484 555.031 258.771C545.71 252.134 528.424 255.735 524.853 257.359Z" fill="#FFBDA7"/>
<path d="M517.565 268.444C517.565 270.844 519.03 273.192 518.188 275.646C516.632 282.477 516.522 290.597 520.788 296.545C516.101 290.791 516.101 282.424 517.895 275.575C518.737 273.245 517.346 270.862 517.565 268.514V268.444Z" fill="white"/>
<path d="M550.472 288.955L552.413 301.964C555.434 302.582 555.709 306.024 554.244 308.619L554.958 312.29L534.302 315.856L531.995 297.657L550.472 288.955Z" fill="#FFBDA7"/>
<path d="M521.191 296.81C523.022 297.745 526.776 298.434 532.013 297.728L531.702 295.151C530.041 295.752 528.332 296.224 526.593 296.563C524.815 296.902 522.995 296.986 521.191 296.81V296.81Z" fill="#F0997A"/>
<path d="M519.909 261.136C519.77 262.663 520.185 264.19 521.083 265.455C521.981 266.72 523.308 267.646 524.835 268.073C524.02 269.764 523.715 271.642 523.956 273.492C524.025 274.585 524.417 275.636 525.085 276.521C525.753 277.406 526.671 278.089 527.728 278.488C529.175 278.964 529.56 278.346 530.127 277.234C530.86 275.663 531.794 273.263 535.291 273.704C539.301 274.234 540.363 280.059 538.02 283.871C537.569 284.677 536.922 285.365 536.134 285.876C535.346 286.387 534.441 286.704 533.497 286.801C532.977 286.794 532.465 286.68 531.994 286.467C531.524 286.254 531.106 285.947 530.768 285.566C530.768 285.566 531.024 290.649 537.818 293.668C542.067 295.847 546.99 296.473 551.68 295.433C554.838 292.052 557.815 288.517 560.598 284.842C567.923 274.534 569.479 255.664 556.936 252.275C556.331 252.116 544.923 250.51 539.356 251.746C522.198 255.276 519.946 260.342 519.909 261.136Z" fill="#263238"/>
<path d="M550.874 250.951C549.358 252.004 548.316 253.577 547.963 255.346C547.806 256.229 547.893 257.135 548.214 257.975C548.535 258.814 549.08 259.558 549.794 260.13C553.456 262.901 559.17 259.671 559.847 255.576C560.616 250.739 554.573 248.303 550.874 250.951Z" fill="#92E3A9"/>
<path d="M553.859 252.487C550.105 254.711 547.762 259.954 549.757 263.731C550.307 264.755 551.076 265.673 551.589 266.749C553.035 270.191 550.929 273.986 550.472 277.676C550.158 280.604 550.684 283.559 551.992 286.219C553.237 288.178 555.983 288.673 557.082 290.72C557.833 292.132 557.32 293.862 557.613 295.433C558.254 298.805 562.393 300.428 565.963 300.499C567.473 300.628 568.994 300.435 570.418 299.935C571.841 299.435 573.134 298.639 574.204 297.604C575.023 296.378 575.915 295.199 576.877 294.074C579.001 292.15 582.371 292.309 584.715 290.544C585.582 289.806 586.261 288.886 586.699 287.854C587.137 286.822 587.323 285.707 587.242 284.595C587.025 282.367 586.406 280.192 585.41 278.17C583.891 274.64 585.099 272.363 585.868 268.779C586.229 266.844 585.896 264.848 584.924 263.119C583.953 261.39 582.4 260.031 580.521 259.265C577.939 258.277 574.79 258.436 572.702 256.653C571.712 255.523 570.783 254.345 569.919 253.122C566 248.974 558.272 249.892 553.859 252.487Z" fill="#263238"/>
<path d="M568.6 312.608C567.777 310.45 566.473 308.493 564.781 306.874C563.088 305.254 561.048 304.012 558.804 303.235C556.972 302.706 552.413 301.964 552.413 301.964C553.457 304.259 551.699 305.777 548.604 306.465C544.63 307.365 538.569 307.454 534.449 304.824L532.764 303.818C528.268 304.883 523.831 306.167 519.47 307.666C518.573 308.072 513.61 309.678 505.809 326.57C502.477 333.79 503.465 341.115 509.6 346.322C509.948 350.894 506.89 361.185 506.89 361.185C505.335 369.773 504.978 378.524 505.828 387.203C505.828 387.203 509.49 396.559 538.532 396.453C561.001 396.453 572.299 385.862 572.299 385.862C572.025 380.566 563.381 361.979 564.242 355.731C565.579 346.622 574.24 330.295 568.6 312.608Z" fill="#92E3A9"/>
<path d="M519.47 307.665C525.385 312.308 525.842 318.68 524.963 327.276C524.084 335.873 515.13 362.738 513.299 368.581C511.468 374.424 508.849 376.453 504.235 381.184C499.62 385.915 488.834 393.434 483.469 397.741C480.979 399.736 478.763 401.819 476.401 403.99C473.82 406.088 471.091 408.011 468.234 409.744C466.898 410.625 465.343 411.149 463.729 411.262C462.703 411.262 461.806 410.803 460.836 410.874C459.865 410.945 459.004 411.686 457.942 411.509C456.88 411.333 455.818 410.291 454.665 410.168C453.442 410.184 452.219 410.131 451.002 410.009C450.038 409.664 448.998 409.561 447.981 409.709C447.029 409.885 445.582 410.786 444.685 410.027C443.787 409.268 444.282 408.05 444.868 407.149C446.163 405.465 447.987 404.227 450.068 403.619C452.129 402.798 454.239 402.097 456.386 401.519C458.406 400.996 460.282 400.05 461.879 398.747C463.015 397.918 463.93 396.47 462.044 396.1C459.81 395.658 456.862 395.958 455.086 394.211C453.877 393.011 454.591 391.899 456.075 391.581C458.512 391.062 460.906 390.366 463.235 389.498C465.615 388.615 467.867 387.503 470.266 386.691C471.545 386.293 472.848 385.969 474.167 385.721C477.829 384.997 479.935 382.014 482.205 379.454C485.392 375.924 490.867 369.181 494.584 364.345L500.206 338.132C503.758 323.905 505.004 311.972 519.47 307.665Z" fill="#FFBDA7"/>
<path d="M524.927 327.276C523.498 335.043 521.534 342.709 519.049 350.223C518.866 350.841 518.664 351.441 518.481 351.989C516.229 359.349 514.05 365.986 513.244 368.563C511.596 373.859 509.27 376.048 505.406 379.931L504.179 381.167C499.363 386.091 488.779 393.417 483.414 397.741C480.942 399.736 478.708 401.801 476.364 403.972C473.777 406.076 471.042 408.005 468.179 409.744C466.841 410.619 465.287 411.137 463.674 411.245C462.648 411.333 461.751 410.786 460.781 410.856C459.81 410.927 458.949 411.668 457.887 411.492C456.825 411.315 455.763 410.274 454.61 410.168C453.386 410.179 452.163 410.12 450.947 409.992C449.981 409.655 448.943 409.552 447.926 409.691C447.633 409.691 447.285 409.886 446.919 410.009L446.461 410.15C446.255 410.224 446.039 410.272 445.82 410.292C445.615 410.331 445.404 410.326 445.201 410.277C444.998 410.229 444.809 410.137 444.648 410.009C443.641 409.162 444.227 408.05 444.813 407.15C446.107 405.464 447.931 404.226 450.013 403.619C452.074 402.793 454.183 402.085 456.331 401.501C458.351 400.978 460.227 400.032 461.824 398.73C462.96 397.9 463.875 396.47 461.989 396.082C459.755 395.641 456.807 395.941 455.049 394.211C453.822 392.993 454.536 391.881 456.02 391.563C458.458 391.046 460.852 390.35 463.179 389.48C465.56 388.598 467.831 387.486 470.211 386.692C471.486 386.281 472.79 385.957 474.112 385.721C477.774 384.997 479.88 381.996 482.15 379.454C485.337 375.924 490.812 369.164 494.548 364.327L500.151 338.114C503.703 323.817 505.004 311.884 519.415 307.595C520.903 308.757 522.146 310.183 523.077 311.796C525.531 315.962 525.586 321.028 524.927 327.276Z" fill="#FFBDA7"/>
<path d="M444.575 410.027C444.233 409.693 444.03 409.251 444.003 408.783C443.976 408.315 444.127 407.853 444.428 407.485C445.802 404.926 448.786 403.831 451.423 402.966C453.176 402.172 455.02 401.58 456.917 401.201C458.716 400.665 460.407 399.835 461.916 398.748C460.489 399.982 458.82 400.93 457.008 401.536C453.351 402.401 449.838 403.756 446.571 405.561C445.362 406.497 443.256 408.456 444.648 409.956L444.575 410.027Z" fill="white"/>
<path d="M455.086 394.282C452.815 391.775 457.21 391.457 458.858 390.928C463.216 389.851 467.062 387.539 471.347 386.374C473.543 386.049 475.645 385.286 477.518 384.132C480.502 381.855 483.707 377.283 486.179 374.406L494.419 364.292C496.251 355.466 499.162 341.715 501.341 332.748C503.667 322.157 507.238 310.843 519.47 307.665C507.421 310.966 503.905 322.21 501.671 332.819C499.473 341.927 496.837 355.254 494.767 364.592L486.454 374.688C483.908 377.583 480.777 382.067 477.682 384.414C475.785 385.572 473.659 386.335 471.438 386.656C467.153 387.803 463.253 390.063 458.895 391.069C457.228 391.581 452.87 391.81 455.086 394.334V394.282Z" fill="white"/>
<path opacity="0.3" d="M560.873 422.489C560.872 423.174 561.069 423.846 561.44 424.431C561.825 423.972 562.155 423.407 562.484 423.054C563.22 422.367 564.119 421.864 565.103 421.589C566.171 420.997 567.204 420.349 568.197 419.647C569.186 419.082 570.505 419.417 571.658 418.87C572.812 418.323 572.849 417.352 573.618 416.717C574.387 416.081 575.449 416.046 576.181 415.393C577.427 414.393 578.369 413.088 578.91 411.616C580.172 408.595 581.212 405.492 582.023 402.331C582.609 399.242 583.14 396.294 583.945 393.276C585.667 386.744 589.769 374.83 590.666 368.122C591.527 361.697 590.904 359.579 588.835 353.824C586.765 348.07 579.129 320.287 574.643 312.749C570.395 305.689 566.861 304.736 558.51 303.147L558.016 303.023L557.174 302.847L556.514 302.706L555.672 302.547L555.178 302.458L553.969 302.229L553.054 302.07H552.815H552.431L551.46 295.557H551.698C553.182 293.792 554.811 292.115 556.514 290.138C556.722 290.369 556.901 290.624 557.046 290.897C557.815 292.309 557.284 294.021 557.577 295.592C558.217 298.981 562.356 300.587 565.927 300.676C567.437 300.797 568.957 300.6 570.381 300.097C571.804 299.594 573.096 298.797 574.167 297.763C574.992 296.541 575.885 295.363 576.841 294.233C578.965 292.309 582.334 292.468 584.696 290.703C585.561 289.96 586.238 289.036 586.673 288.002C587.108 286.967 587.29 285.85 587.205 284.736C586.998 282.506 586.377 280.33 585.374 278.311C583.854 274.781 585.063 272.504 585.832 268.938C586.195 267.003 585.865 265.005 584.897 263.274C583.929 261.542 582.38 260.179 580.503 259.406C577.903 258.418 574.753 258.594 572.665 256.794C571.681 255.664 570.758 254.486 569.9 253.264C566.97 250.175 561.935 249.91 557.723 251.04C556.682 250.344 555.436 249.991 554.171 250.033C548.457 245.762 541.004 244.738 534.614 245.232C532.209 246.206 530.034 247.641 528.223 249.451C522.473 254.941 519.067 263.007 520.569 270.633C520.862 272.063 521.319 273.439 521.557 274.869C522.162 278.523 521.319 282.247 521.338 285.954C521.356 289.661 522.565 293.756 525.897 295.574C528.424 296.934 531.519 296.669 534.394 297.022C539.118 297.604 538.569 300.411 538.752 304.277C538.832 304.868 538.782 305.47 538.606 306.042C538.533 306.248 538.421 306.44 538.276 306.607C537.049 308.072 533.57 308.654 532.032 309.148C528.983 309.86 526.005 310.829 523.132 312.043C521.813 312.689 520.671 313.627 519.799 314.779C516.302 319.51 514.819 325.141 513.335 330.666C511.962 335.785 510.515 340.904 508.995 345.987C507.628 350.6 506.2 355.189 504.711 359.755C503.552 363.91 501.815 367.894 499.547 371.599C496.708 375.783 492.643 379.031 488.981 382.596C480.686 390.681 473.745 401.025 462.648 404.908C458.382 406.391 453.804 406.797 449.427 407.926C447.907 408.315 446.186 409.091 445.765 410.451C445.984 410.431 446.2 410.383 446.406 410.309L446.864 410.168C447.23 410.045 447.578 409.921 447.871 409.85C448.888 409.711 449.926 409.814 450.892 410.15C452.108 410.279 453.331 410.338 454.555 410.327C455.708 410.433 456.569 411.457 457.832 411.651C459.096 411.845 459.664 411.086 460.726 411.015C461.788 410.945 462.557 411.492 463.619 411.404C465.232 411.296 466.786 410.778 468.124 409.903C470.987 408.164 473.722 406.235 476.309 404.131C478.653 401.96 480.887 399.895 483.359 397.9C488.724 393.576 499.309 386.25 504.125 381.325L505.351 380.09C509.197 376.224 511.522 374.053 513.171 368.74C513.976 366.163 516.155 359.526 518.408 352.165L518.975 350.4C519.821 351.392 520.263 352.647 520.221 353.93C520.898 362.509 523.022 371.194 524.469 379.737C525.494 385.827 526.538 391.916 527.014 398.059C527.38 402.507 527.435 406.885 527.509 411.404L527.948 443.176C527.948 444.942 527.948 446.707 528.04 448.578C528.063 453.578 528.418 458.572 529.102 463.529C529.699 467.898 530.685 472.209 532.05 476.414C532.38 477.438 532.728 478.462 533.112 479.486C536.903 489.635 542.854 498.902 548.585 508.046C554.4 517.816 559.616 527.906 564.205 538.265C565.146 540.077 565.836 542 566.256 543.984C566.842 547.409 565.872 550.886 565.597 554.346C565.322 557.805 565.725 561.124 565.597 564.513C565.676 567.924 564.652 571.273 562.667 574.098C561.236 575.876 559.254 577.168 557.009 577.787C558.768 578.082 560.562 578.136 562.338 577.946C563.361 577.855 564.347 577.528 565.213 576.993C569.743 575.15 574.169 573.076 578.47 570.779C580.192 569.455 581.125 567.567 580.704 563.719C580.175 560.053 580.943 556.322 582.883 553.128C584.058 551.187 584.957 549.103 585.557 546.932C586.015 545.432 584.403 543.878 583.726 543.578C583.268 541.813 581.656 540.966 580.063 540.048C577.816 538.961 575.783 537.503 574.057 535.741C573.066 533.964 572.297 532.08 571.768 530.128C571.534 529.699 571.17 529.348 570.724 529.122C567.904 521.302 561.77 505.045 559.957 499.52C556.551 489.053 555.031 485.275 549.153 479.45C549.153 479.45 552.394 448.948 554.28 426.76L556.551 422.93C556.789 422.524 557.027 422.136 557.284 421.747C559.826 417.752 562.797 414.025 566.146 410.627C566.476 410.292 566.806 409.903 567.135 409.533C566.641 410.327 566.165 411.121 565.615 411.898C563.436 415.111 560.708 418.553 560.873 422.489ZM572.079 386.091L572.299 385.897C572.189 384.749 571.962 383.614 571.622 382.508C571.201 381.008 570.615 379.225 569.974 377.301C569.772 376.701 569.552 376.083 569.333 375.536C568.582 373.382 567.776 371.088 567.044 368.864C566.806 368.175 566.586 367.487 566.384 366.816C566.183 366.145 565.908 365.333 565.707 364.627C565.506 363.921 565.414 363.621 565.286 363.127C565.286 362.968 565.194 362.791 565.158 362.633C565.121 362.474 564.993 361.979 564.92 361.679C564.773 361.097 564.645 360.55 564.553 360.02L564.443 359.438C564.435 359.302 564.435 359.167 564.443 359.032C564.39 358.775 564.353 358.516 564.334 358.255V357.725C564.316 357.408 564.316 357.09 564.334 356.772C564.314 356.467 564.314 356.16 564.334 355.854C564.829 353.114 565.508 350.408 566.366 347.752C566.952 345.705 567.611 343.516 568.197 341.186C569.937 344.31 571.622 347.435 573.306 350.577C574.754 353.061 575.979 355.659 576.969 358.343C578.983 364.451 578.489 371.07 577.719 377.442C576.915 384.711 575.244 391.866 572.739 398.765C573.274 394.535 573.051 390.248 572.079 386.091V386.091Z" fill="black"/>
</svg>
